STARTFONT 2.1
FONT -JDECW-Gothic-Medium-R-Normal--14-100-100-100-M-70-JISX0201.1976-0
SIZE 10 100 100
FONTBOUNDINGBOX 8 16 0 -2

STARTPROPERTIES 26
FONTNAME_REGISTRY ""
FAMILY_NAME "Gothic"
FOUNDRY "JDECW"
WEIGHT_NAME "Medium"
SLANT "R"
SETWIDTH_NAME "Normal"
ADD_STYLE_NAME ""
PIXEL_SIZE 14
POINT_SIZE 100
RESOLUTION_X 100
RESOLUTION_Y 100
SPACING "M"
AVERAGE_WIDTH 70
CHARSET_REGISTRY "JISX0201.1976"
CHARSET_ENCODING "0"
DEVICE_FONT_NAME "Gothic-JISX0201.1976-0"
CHARSET_COLLECTIONS "JISX0201.1976 0"
FULL_NAME "Gothic-JISX0201.1976-0"
COPYRIGHT "Copyright (c) 1990 1991 TYPEBANK, Digital Equipment Corporation Japan"
CAP_HEIGHT 11
X_HEIGHT 8
WEIGHT 10
QUAD_WIDTH 8
DEFAULT_CHAR 32
FONT_DESCENT 2
FONT_ASCENT 14
ENDPROPERTIES

CHARS 158

STARTCHAR C20
ENCODING 32
SWIDTH 1000 0
DWIDTH 8 0
BBX 8 16 0 -2
BITMAP
00
00
00
00
00
00
00
00
00
00
00
00
00
00
00
00
ENDCHAR

STARTCHAR C21
ENCODING 33
SWIDTH 1000 0
DWIDTH 8 0
BBX 8 16 0 -2
BITMAP
00
00
70
70
70
70
70
70
20
20
20
00
00
20
20
00
ENDCHAR

STARTCHAR C22
ENCODING 34
SWIDTH 1000 0
DWIDTH 8 0
BBX 8 16 0 -2
BITMAP
00
D8
D8
48
48
90
00
00
00
00
00
00
00
00
00
00
ENDCHAR

STARTCHAR C23
ENCODING 35
SWIDTH 1000 0
DWIDTH 8 0
BBX 8 16 0 -2
BITMAP
00
00
00
48
48
48
FC
48
48
48
FC
48
48
48
00
00
ENDCHAR

STARTCHAR C24
ENCODING 36
SWIDTH 1000 0
DWIDTH 8 0
BBX 8 16 0 -2
BITMAP
00
00
20
70
A8
A8
A0
60
20
30
A8
A8
A8
70
20
00
ENDCHAR

STARTCHAR C25
ENCODING 37
SWIDTH 1000 0
DWIDTH 8 0
BBX 8 16 0 -2
BITMAP
00
04
44
A8
A8
A8
50
10
20
28
54
54
54
88
80
00
ENDCHAR

STARTCHAR C26
ENCODING 38
SWIDTH 1000 0
DWIDTH 8 0
BBX 8 16 0 -2
BITMAP
00
00
00
60
90
90
90
60
44
A4
94
94
88
74
00
00
ENDCHAR

STARTCHAR C27
ENCODING 39
SWIDTH 1000 0
DWIDTH 8 0
BBX 8 16 0 -2
BITMAP
00
C0
C0
40
40
80
00
00
00
00
00
00
00
00
00
00
ENDCHAR

STARTCHAR C28
ENCODING 40
SWIDTH 1000 0
DWIDTH 8 0
BBX 8 16 0 -2
BITMAP
00
08
10
10
20
20
20
20
20
20
20
20
10
10
08
00
ENDCHAR

STARTCHAR C29
ENCODING 41
SWIDTH 1000 0
DWIDTH 8 0
BBX 8 16 0 -2
BITMAP
00
40
20
20
10
10
10
10
10
10
10
10
20
20
40
00
ENDCHAR

STARTCHAR C2a
ENCODING 42
SWIDTH 1000 0
DWIDTH 8 0
BBX 8 16 0 -2
BITMAP
00
00
00
00
00
20
A8
70
20
70
A8
20
00
00
00
00
ENDCHAR

STARTCHAR C2b
ENCODING 43
SWIDTH 1000 0
DWIDTH 8 0
BBX 8 16 0 -2
BITMAP
00
00
00
00
00
20
20
20
F8
20
20
20
00
00
00
00
ENDCHAR

STARTCHAR C2c
ENCODING 44
SWIDTH 1000 0
DWIDTH 8 0
BBX 8 16 0 -2
BITMAP
00
00
00
00
00
00
00
00
00
00
00
C0
C0
40
80
00
ENDCHAR

STARTCHAR C2d
ENCODING 45
SWIDTH 1000 0
DWIDTH 8 0
BBX 8 16 0 -2
BITMAP
00
00
00
00
00
00
00
00
F8
00
00
00
00
00
00
00
ENDCHAR

STARTCHAR C2e
ENCODING 46
SWIDTH 1000 0
DWIDTH 8 0
BBX 8 16 0 -2
BITMAP
00
00
00
00
00
00
00
00
00
00
00
00
C0
C0
00
00
ENDCHAR

STARTCHAR C2f
ENCODING 47
SWIDTH 1000 0
DWIDTH 8 0
BBX 8 16 0 -2
BITMAP
00
04
04
08
08
08
10
10
20
20
40
40
40
80
80
00
ENDCHAR

STARTCHAR C30
ENCODING 48
SWIDTH 1000 0
DWIDTH 8 0
BBX 8 16 0 -2
BITMAP
00
00
00
30
48
84
84
84
84
84
84
84
48
30
00
00
ENDCHAR

STARTCHAR C31
ENCODING 49
SWIDTH 1000 0
DWIDTH 8 0
BBX 8 16 0 -2
BITMAP
00
00
00
30
50
90
10
10
10
10
10
10
10
10
00
00
ENDCHAR

STARTCHAR C32
ENCODING 50
SWIDTH 1000 0
DWIDTH 8 0
BBX 8 16 0 -2
BITMAP
00
00
00
78
84
84
04
08
10
20
40
40
80
FC
00
00
ENDCHAR

STARTCHAR C33
ENCODING 51
SWIDTH 1000 0
DWIDTH 8 0
BBX 8 16 0 -2
BITMAP
00
00
00
78
84
84
84
04
38
04
84
84
84
78
00
00
ENDCHAR

STARTCHAR C34
ENCODING 52
SWIDTH 1000 0
DWIDTH 8 0
BBX 8 16 0 -2
BITMAP
00
00
00
08
18
28
28
48
48
88
FC
08
08
08
00
00
ENDCHAR

STARTCHAR C35
ENCODING 53
SWIDTH 1000 0
DWIDTH 8 0
BBX 8 16 0 -2
BITMAP
00
00
00
FC
80
80
80
F8
84
04
04
84
84
78
00
00
ENDCHAR

STARTCHAR C36
ENCODING 54
SWIDTH 1000 0
DWIDTH 8 0
BBX 8 16 0 -2
BITMAP
00
00
00
78
84
84
80
80
F8
84
84
84
84
78
00
00
ENDCHAR

STARTCHAR C37
ENCODING 55
SWIDTH 1000 0
DWIDTH 8 0
BBX 8 16 0 -2
BITMAP
00
00
00
FC
04
04
08
08
08
10
10
10
10
10
00
00
ENDCHAR

STARTCHAR C38
ENCODING 56
SWIDTH 1000 0
DWIDTH 8 0
BBX 8 16 0 -2
BITMAP
00
00
00
78
84
84
84
84
78
84
84
84
84
78
00
00
ENDCHAR

STARTCHAR C39
ENCODING 57
SWIDTH 1000 0
DWIDTH 8 0
BBX 8 16 0 -2
BITMAP
00
00
00
78
84
84
84
84
7C
04
04
84
84
78
00
00
ENDCHAR

STARTCHAR C3a
ENCODING 58
SWIDTH 1000 0
DWIDTH 8 0
BBX 8 16 0 -2
BITMAP
00
00
00
00
00
00
30
30
00
00
00
00
30
30
00
00
ENDCHAR

STARTCHAR C3b
ENCODING 59
SWIDTH 1000 0
DWIDTH 8 0
BBX 8 16 0 -2
BITMAP
00
00
00
00
00
00
30
30
00
00
00
30
30
10
20
00
ENDCHAR

STARTCHAR C3c
ENCODING 60
SWIDTH 1000 0
DWIDTH 8 0
BBX 8 16 0 -2
BITMAP
00
02
04
08
10
20
40
80
80
40
20
10
08
04
02
00
ENDCHAR

STARTCHAR C3d
ENCODING 61
SWIDTH 1000 0
DWIDTH 8 0
BBX 8 16 0 -2
BITMAP
00
00
00
00
00
00
78
00
00
78
00
00
00
00
00
00
ENDCHAR

STARTCHAR C3e
ENCODING 62
SWIDTH 1000 0
DWIDTH 8 0
BBX 8 16 0 -2
BITMAP
00
80
40
20
10
08
04
02
02
04
08
10
20
40
80
00
ENDCHAR

STARTCHAR C3f
ENCODING 63
SWIDTH 1000 0
DWIDTH 8 0
BBX 8 16 0 -2
BITMAP
00
00
70
88
88
88
10
10
20
20
20
00
00
20
20
00
ENDCHAR

STARTCHAR C40
ENCODING 64
SWIDTH 1000 0
DWIDTH 8 0
BBX 8 16 0 -2
BITMAP
00
00
00
38
44
9C
A4
A4
A4
A4
9C
80
44
38
00
00
ENDCHAR

STARTCHAR C41
ENCODING 65
SWIDTH 1000 0
DWIDTH 8 0
BBX 8 16 0 -2
BITMAP
00
00
00
20
20
20
50
50
50
50
70
88
88
88
00
00
ENDCHAR

STARTCHAR C42
ENCODING 66
SWIDTH 1000 0
DWIDTH 8 0
BBX 8 16 0 -2
BITMAP
00
00
00
F0
88
88
88
88
F0
88
88
88
88
F0
00
00
ENDCHAR

STARTCHAR C43
ENCODING 67
SWIDTH 1000 0
DWIDTH 8 0
BBX 8 16 0 -2
BITMAP
00
00
00
70
88
88
80
80
80
80
80
88
88
70
00
00
ENDCHAR

STARTCHAR C44
ENCODING 68
SWIDTH 1000 0
DWIDTH 8 0
BBX 8 16 0 -2
BITMAP
00
00
00
E0
90
88
88
88
88
88
88
88
90
E0
00
00
ENDCHAR

STARTCHAR C45
ENCODING 69
SWIDTH 1000 0
DWIDTH 8 0
BBX 8 16 0 -2
BITMAP
00
00
00
F8
80
80
80
80
F0
80
80
80
80
F8
00
00
ENDCHAR

STARTCHAR C46
ENCODING 70
SWIDTH 1000 0
DWIDTH 8 0
BBX 8 16 0 -2
BITMAP
00
00
00
F8
80
80
80
80
F0
80
80
80
80
80
00
00
ENDCHAR

STARTCHAR C47
ENCODING 71
SWIDTH 1000 0
DWIDTH 8 0
BBX 8 16 0 -2
BITMAP
00
00
00
70
88
88
80
80
B8
88
88
88
98
68
00
00
ENDCHAR

STARTCHAR C48
ENCODING 72
SWIDTH 1000 0
DWIDTH 8 0
BBX 8 16 0 -2
BITMAP
00
00
00
88
88
88
88
88
F8
88
88
88
88
88
00
00
ENDCHAR

STARTCHAR C49
ENCODING 73
SWIDTH 1000 0
DWIDTH 8 0
BBX 8 16 0 -2
BITMAP
00
00
00
20
20
20
20
20
20
20
20
20
20
20
00
00
ENDCHAR

STARTCHAR C4a
ENCODING 74
SWIDTH 1000 0
DWIDTH 8 0
BBX 8 16 0 -2
BITMAP
00
00
00
08
08
08
08
08
08
08
88
88
88
70
00
00
ENDCHAR

STARTCHAR C4b
ENCODING 75
SWIDTH 1000 0
DWIDTH 8 0
BBX 8 16 0 -2
BITMAP
00
00
00
88
88
90
90
A0
A0
D0
90
88
88
88
00
00
ENDCHAR

STARTCHAR C4c
ENCODING 76
SWIDTH 1000 0
DWIDTH 8 0
BBX 8 16 0 -2
BITMAP
00
00
00
80
80
80
80
80
80
80
80
80
80
F8
00
00
ENDCHAR

STARTCHAR C4d
ENCODING 77
SWIDTH 1000 0
DWIDTH 8 0
BBX 8 16 0 -2
BITMAP
00
00
00
88
D8
A8
A8
A8
88
88
88
88
88
88
00
00
ENDCHAR

STARTCHAR C4e
ENCODING 78
SWIDTH 1000 0
DWIDTH 8 0
BBX 8 16 0 -2
BITMAP
00
00
00
88
88
88
C8
A8
A8
A8
98
88
88
88
00
00
ENDCHAR

STARTCHAR C4f
ENCODING 79
SWIDTH 1000 0
DWIDTH 8 0
BBX 8 16 0 -2
BITMAP
00
00
00
30
48
84
84
84
84
84
84
84
48
30
00
00
ENDCHAR

STARTCHAR C50
ENCODING 80
SWIDTH 1000 0
DWIDTH 8 0
BBX 8 16 0 -2
BITMAP
00
00
00
E0
90
88
88
88
90
E0
80
80
80
80
00
00
ENDCHAR

STARTCHAR C51
ENCODING 81
SWIDTH 1000 0
DWIDTH 8 0
BBX 8 16 0 -2
BITMAP
00
00
00
30
48
84
84
84
84
94
94
48
38
04
04
00
ENDCHAR

STARTCHAR C52
ENCODING 82
SWIDTH 1000 0
DWIDTH 8 0
BBX 8 16 0 -2
BITMAP
00
00
00
E0
90
88
88
90
E0
A0
90
90
88
88
00
00
ENDCHAR

STARTCHAR C53
ENCODING 83
SWIDTH 1000 0
DWIDTH 8 0
BBX 8 16 0 -2
BITMAP
00
00
00
70
88
88
80
40
20
10
08
88
88
70
00
00
ENDCHAR

STARTCHAR C54
ENCODING 84
SWIDTH 1000 0
DWIDTH 8 0
BBX 8 16 0 -2
BITMAP
00
00
00
F8
20
20
20
20
20
20
20
20
20
20
00
00
ENDCHAR

STARTCHAR C55
ENCODING 85
SWIDTH 1000 0
DWIDTH 8 0
BBX 8 16 0 -2
BITMAP
00
00
00
88
88
88
88
88
88
88
88
88
88
70
00
00
ENDCHAR

STARTCHAR C56
ENCODING 86
SWIDTH 1000 0
DWIDTH 8 0
BBX 8 16 0 -2
BITMAP
00
00
00
88
88
88
88
50
50
50
50
20
20
20
00
00
ENDCHAR

STARTCHAR C57
ENCODING 87
SWIDTH 1000 0
DWIDTH 8 0
BBX 8 16 0 -2
BITMAP
00
00
00
88
88
88
88
A8
A8
A8
A8
50
50
50
00
00
ENDCHAR

STARTCHAR C58
ENCODING 88
SWIDTH 1000 0
DWIDTH 8 0
BBX 8 16 0 -2
BITMAP
00
00
00
88
88
50
50
20
20
50
50
88
88
88
00
00
ENDCHAR

STARTCHAR C59
ENCODING 89
SWIDTH 1000 0
DWIDTH 8 0
BBX 8 16 0 -2
BITMAP
00
00
00
88
88
88
50
50
50
20
20
20
20
20
00
00
ENDCHAR

STARTCHAR C5a
ENCODING 90
SWIDTH 1000 0
DWIDTH 8 0
BBX 8 16 0 -2
BITMAP
00
00
00
F8
08
10
10
20
20
20
40
40
80
F8
00
00
ENDCHAR

STARTCHAR C5b
ENCODING 91
SWIDTH 1000 0
DWIDTH 8 0
BBX 8 16 0 -2
BITMAP
00
38
20
20
20
20
20
20
20
20
20
20
20
20
38
00
ENDCHAR

STARTCHAR C5c
ENCODING 92
SWIDTH 1000 0
DWIDTH 8 0
BBX 8 16 0 -2
BITMAP
00
00
00
88
88
50
50
20
F8
20
F8
20
20
20
00
00
ENDCHAR

STARTCHAR C5d
ENCODING 93
SWIDTH 1000 0
DWIDTH 8 0
BBX 8 16 0 -2
BITMAP
00
70
10
10
10
10
10
10
10
10
10
10
10
10
70
00
ENDCHAR

STARTCHAR C5e
ENCODING 94
SWIDTH 1000 0
DWIDTH 8 0
BBX 8 16 0 -2
BITMAP
00
30
48
00
00
00
00
00
00
00
00
00
00
00
00
00
ENDCHAR

STARTCHAR C5f
ENCODING 95
SWIDTH 1000 0
DWIDTH 8 0
BBX 8 16 0 -2
BITMAP
00
00
00
00
00
00
00
00
00
00
00
00
00
00
FE
00
ENDCHAR

STARTCHAR C60
ENCODING 96
SWIDTH 1000 0
DWIDTH 8 0
BBX 8 16 0 -2
BITMAP
00
C0
C0
80
80
40
00
00
00
00
00
00
00
00
00
00
ENDCHAR

STARTCHAR C61
ENCODING 97
SWIDTH 1000 0
DWIDTH 8 0
BBX 8 16 0 -2
BITMAP
00
00
00
00
00
00
70
88
08
78
88
88
88
74
00
00
ENDCHAR

STARTCHAR C62
ENCODING 98
SWIDTH 1000 0
DWIDTH 8 0
BBX 8 16 0 -2
BITMAP
00
00
00
80
80
80
F0
88
88
88
88
88
88
F0
00
00
ENDCHAR

STARTCHAR C63
ENCODING 99
SWIDTH 1000 0
DWIDTH 8 0
BBX 8 16 0 -2
BITMAP
00
00
00
00
00
00
70
88
88
80
80
80
88
70
00
00
ENDCHAR

STARTCHAR C64
ENCODING 100
SWIDTH 1000 0
DWIDTH 8 0
BBX 8 16 0 -2
BITMAP
00
00
00
08
08
08
78
88
88
88
88
88
88
78
00
00
ENDCHAR

STARTCHAR C65
ENCODING 101
SWIDTH 1000 0
DWIDTH 8 0
BBX 8 16 0 -2
BITMAP
00
00
00
00
00
00
70
88
88
F8
80
80
88
70
00
00
ENDCHAR

STARTCHAR C66
ENCODING 102
SWIDTH 1000 0
DWIDTH 8 0
BBX 8 16 0 -2
BITMAP
00
00
00
18
20
20
F8
20
20
20
20
20
20
20
00
00
ENDCHAR

STARTCHAR C67
ENCODING 103
SWIDTH 1000 0
DWIDTH 8 0
BBX 8 16 0 -2
BITMAP
00
00
00
00
00
00
78
88
88
88
88
78
08
88
70
00
ENDCHAR

STARTCHAR C68
ENCODING 104
SWIDTH 1000 0
DWIDTH 8 0
BBX 8 16 0 -2
BITMAP
00
00
00
80
80
80
F0
88
88
88
88
88
88
88
00
00
ENDCHAR

STARTCHAR C69
ENCODING 105
SWIDTH 1000 0
DWIDTH 8 0
BBX 8 16 0 -2
BITMAP
00
00
00
20
20
00
20
20
20
20
20
20
20
20
00
00
ENDCHAR

STARTCHAR C6a
ENCODING 106
SWIDTH 1000 0
DWIDTH 8 0
BBX 8 16 0 -2
BITMAP
00
00
00
10
10
00
10
10
10
10
10
10
10
10
E0
00
ENDCHAR

STARTCHAR C6b
ENCODING 107
SWIDTH 1000 0
DWIDTH 8 0
BBX 8 16 0 -2
BITMAP
00
00
00
80
80
80
88
90
A0
A0
D0
90
88
88
00
00
ENDCHAR

STARTCHAR C6c
ENCODING 108
SWIDTH 1000 0
DWIDTH 8 0
BBX 8 16 0 -2
BITMAP
00
00
00
20
20
20
20
20
20
20
20
20
20
20
00
00
ENDCHAR

STARTCHAR C6d
ENCODING 109
SWIDTH 1000 0
DWIDTH 8 0
BBX 8 16 0 -2
BITMAP
00
00
00
00
00
00
D0
A8
A8
A8
A8
A8
A8
A8
00
00
ENDCHAR

STARTCHAR C6e
ENCODING 110
SWIDTH 1000 0
DWIDTH 8 0
BBX 8 16 0 -2
BITMAP
00
00
00
00
00
00
B0
C8
88
88
88
88
88
88
00
00
ENDCHAR

STARTCHAR C6f
ENCODING 111
SWIDTH 1000 0
DWIDTH 8 0
BBX 8 16 0 -2
BITMAP
00
00
00
00
00
00
70
88
88
88
88
88
88
70
00
00
ENDCHAR

STARTCHAR C70
ENCODING 112
SWIDTH 1000 0
DWIDTH 8 0
BBX 8 16 0 -2
BITMAP
00
00
00
00
00
00
F0
88
88
88
88
F0
80
80
80
00
ENDCHAR

STARTCHAR C71
ENCODING 113
SWIDTH 1000 0
DWIDTH 8 0
BBX 8 16 0 -2
BITMAP
00
00
00
00
00
00
78
88
88
88
88
78
08
08
08
00
ENDCHAR

STARTCHAR C72
ENCODING 114
SWIDTH 1000 0
DWIDTH 8 0
BBX 8 16 0 -2
BITMAP
00
00
00
00
00
00
58
60
40
40
40
40
40
40
00
00
ENDCHAR

STARTCHAR C73
ENCODING 115
SWIDTH 1000 0
DWIDTH 8 0
BBX 8 16 0 -2
BITMAP
00
00
00
00
00
00
70
88
88
60
10
88
88
70
00
00
ENDCHAR

STARTCHAR C74
ENCODING 116
SWIDTH 1000 0
DWIDTH 8 0
BBX 8 16 0 -2
BITMAP
00
00
00
20
20
20
F8
20
20
20
20
20
20
18
00
00
ENDCHAR

STARTCHAR C75
ENCODING 117
SWIDTH 1000 0
DWIDTH 8 0
BBX 8 16 0 -2
BITMAP
00
00
00
00
00
00
88
88
88
88
88
88
98
68
00
00
ENDCHAR

STARTCHAR C76
ENCODING 118
SWIDTH 1000 0
DWIDTH 8 0
BBX 8 16 0 -2
BITMAP
00
00
00
00
00
00
88
88
88
50
50
50
20
20
00
00
ENDCHAR

STARTCHAR C77
ENCODING 119
SWIDTH 1000 0
DWIDTH 8 0
BBX 8 16 0 -2
BITMAP
00
00
00
00
00
00
88
88
A8
A8
A8
50
50
50
00
00
ENDCHAR

STARTCHAR C78
ENCODING 120
SWIDTH 1000 0
DWIDTH 8 0
BBX 8 16 0 -2
BITMAP
00
00
00
00
00
00
88
88
50
20
20
50
88
88
00
00
ENDCHAR

STARTCHAR C79
ENCODING 121
SWIDTH 1000 0
DWIDTH 8 0
BBX 8 16 0 -2
BITMAP
00
00
00
00
00
00
88
88
88
50
50
50
20
20
C0
00
ENDCHAR

STARTCHAR C7a
ENCODING 122
SWIDTH 1000 0
DWIDTH 8 0
BBX 8 16 0 -2
BITMAP
00
00
00
00
00
00
F8
08
10
20
20
40
80
F8
00
00
ENDCHAR

STARTCHAR C7b
ENCODING 123
SWIDTH 1000 0
DWIDTH 8 0
BBX 8 16 0 -2
BITMAP
00
18
20
20
20
20
20
40
20
20
20
20
20
20
18
00
ENDCHAR

STARTCHAR C7c
ENCODING 124
SWIDTH 1000 0
DWIDTH 8 0
BBX 8 16 0 -2
BITMAP
00
20
20
20
20
20
20
20
20
20
20
20
20
20
20
00
ENDCHAR

STARTCHAR C7d
ENCODING 125
SWIDTH 1000 0
DWIDTH 8 0
BBX 8 16 0 -2
BITMAP
00
60
10
10
10
10
10
08
10
10
10
10
10
10
60
00
ENDCHAR

STARTCHAR C7e
ENCODING 126
SWIDTH 1000 0
DWIDTH 8 0
BBX 8 16 0 -2
BITMAP
00
FE
00
00
00
00
00
00
00
00
00
00
00
00
00
00
ENDCHAR

STARTCHAR Ca1
ENCODING 161
SWIDTH 1000 0
DWIDTH 8 0
BBX 8 16 0 -2
BITMAP
00
00
00
00
00
00
00
00
00
00
70
88
88
88
70
00
ENDCHAR

STARTCHAR Ca2
ENCODING 162
SWIDTH 1000 0
DWIDTH 8 0
BBX 8 16 0 -2
BITMAP
00
78
40
40
40
40
40
40
40
40
00
00
00
00
00
00
ENDCHAR

STARTCHAR Ca3
ENCODING 163
SWIDTH 1000 0
DWIDTH 8 0
BBX 8 16 0 -2
BITMAP
00
00
00
00
00
00
00
08
08
08
08
08
08
08
78
00
ENDCHAR

STARTCHAR Ca4
ENCODING 164
SWIDTH 1000 0
DWIDTH 8 0
BBX 8 16 0 -2
BITMAP
00
00
00
00
00
00
00
00
00
00
00
80
40
20
10
00
ENDCHAR

STARTCHAR Ca5
ENCODING 165
SWIDTH 1000 0
DWIDTH 8 0
BBX 8 16 0 -2
BITMAP
00
00
00
00
00
00
00
00
30
30
00
00
00
00
00
00
ENDCHAR

STARTCHAR Ca6
ENCODING 166
SWIDTH 1000 0
DWIDTH 8 0
BBX 8 16 0 -2
BITMAP
00
00
00
00
F8
08
08
F8
08
08
08
10
10
20
00
00
ENDCHAR

STARTCHAR Ca7
ENCODING 167
SWIDTH 1000 0
DWIDTH 8 0
BBX 8 16 0 -2
BITMAP
00
00
00
00
00
00
F8
08
08
28
30
20
20
40
40
00
ENDCHAR

STARTCHAR Ca8
ENCODING 168
SWIDTH 1000 0
DWIDTH 8 0
BBX 8 16 0 -2
BITMAP
00
00
00
00
00
08
08
10
10
30
50
90
10
10
10
00
ENDCHAR

STARTCHAR Ca9
ENCODING 169
SWIDTH 1000 0
DWIDTH 8 0
BBX 8 16 0 -2
BITMAP
00
00
00
00
00
20
20
F8
88
88
88
08
10
10
20
00
ENDCHAR

STARTCHAR Caa
ENCODING 170
SWIDTH 1000 0
DWIDTH 8 0
BBX 8 16 0 -2
BITMAP
00
00
00
00
00
00
00
F8
20
20
20
20
20
FC
00
00
ENDCHAR

STARTCHAR Cab
ENCODING 171
SWIDTH 1000 0
DWIDTH 8 0
BBX 8 16 0 -2
BITMAP
00
00
00
00
00
08
08
FC
28
28
28
48
48
88
18
00
ENDCHAR

STARTCHAR Cac
ENCODING 172
SWIDTH 1000 0
DWIDTH 8 0
BBX 8 16 0 -2
BITMAP
00
00
00
00
00
40
40
5C
E4
28
30
20
10
10
10
00
ENDCHAR

STARTCHAR Cad
ENCODING 173
SWIDTH 1000 0
DWIDTH 8 0
BBX 8 16 0 -2
BITMAP
00
00
00
00
00
00
00
70
10
10
10
10
FC
00
00
00
ENDCHAR

STARTCHAR Cae
ENCODING 174
SWIDTH 1000 0
DWIDTH 8 0
BBX 8 16 0 -2
BITMAP
00
00
00
00
00
00
F8
08
08
78
08
08
F8
00
00
00
ENDCHAR

STARTCHAR Caf
ENCODING 175
SWIDTH 1000 0
DWIDTH 8 0
BBX 8 16 0 -2
BITMAP
00
00
00
00
00
00
A4
A4
A4
04
08
08
10
20
00
00
ENDCHAR

STARTCHAR Cb0
ENCODING 176
SWIDTH 1000 0
DWIDTH 8 0
BBX 8 16 0 -2
BITMAP
00
00
00
00
00
00
00
00
FC
00
00
00
00
00
00
00
ENDCHAR

STARTCHAR Cb1
ENCODING 177
SWIDTH 1000 0
DWIDTH 8 0
BBX 8 16 0 -2
BITMAP
00
00
00
FC
04
04
28
28
30
20
20
20
40
40
00
00
ENDCHAR

STARTCHAR Cb2
ENCODING 178
SWIDTH 1000 0
DWIDTH 8 0
BBX 8 16 0 -2
BITMAP
00
00
04
04
08
10
30
50
90
10
10
10
10
10
00
00
ENDCHAR

STARTCHAR Cb3
ENCODING 179
SWIDTH 1000 0
DWIDTH 8 0
BBX 8 16 0 -2
BITMAP
00
00
20
20
20
F8
88
88
88
08
08
10
10
20
00
00
ENDCHAR

STARTCHAR Cb4
ENCODING 180
SWIDTH 1000 0
DWIDTH 8 0
BBX 8 16 0 -2
BITMAP
00
00
00
00
F8
20
20
20
20
20
20
20
FC
00
00
00
ENDCHAR

STARTCHAR Cb5
ENCODING 181
SWIDTH 1000 0
DWIDTH 8 0
BBX 8 16 0 -2
BITMAP
00
00
08
08
08
FC
28
28
28
48
48
88
88
18
00
00
ENDCHAR

STARTCHAR Cb6
ENCODING 182
SWIDTH 1000 0
DWIDTH 8 0
BBX 8 16 0 -2
BITMAP
00
00
20
20
20
FC
24
24
24
44
44
44
84
98
00
00
ENDCHAR

STARTCHAR Cb7
ENCODING 183
SWIDTH 1000 0
DWIDTH 8 0
BBX 8 16 0 -2
BITMAP
00
00
20
20
38
E0
20
20
3C
E0
10
10
10
10
00
00
ENDCHAR

STARTCHAR Cb8
ENCODING 184
SWIDTH 1000 0
DWIDTH 8 0
BBX 8 16 0 -2
BITMAP
00
00
20
20
3C
24
44
44
88
08
10
10
20
40
00
00
ENDCHAR

STARTCHAR Cb9
ENCODING 185
SWIDTH 1000 0
DWIDTH 8 0
BBX 8 16 0 -2
BITMAP
00
00
40
40
7C
50
50
90
90
10
10
20
20
40
00
00
ENDCHAR

STARTCHAR Cba
ENCODING 186
SWIDTH 1000 0
DWIDTH 8 0
BBX 8 16 0 -2
BITMAP
00
00
00
00
F8
08
08
08
08
08
08
08
F8
08
00
00
ENDCHAR

STARTCHAR Cbb
ENCODING 187
SWIDTH 1000 0
DWIDTH 8 0
BBX 8 16 0 -2
BITMAP
00
00
48
48
48
FC
48
48
48
48
08
10
10
20
00
00
ENDCHAR

STARTCHAR Cbc
ENCODING 188
SWIDTH 1000 0
DWIDTH 8 0
BBX 8 16 0 -2
BITMAP
00
00
00
40
24
24
84
44
48
08
10
10
20
C0
00
00
ENDCHAR

STARTCHAR Cbd
ENCODING 189
SWIDTH 1000 0
DWIDTH 8 0
BBX 8 16 0 -2
BITMAP
00
00
00
78
08
08
08
08
10
10
28
28
44
84
00
00
ENDCHAR

STARTCHAR Cbe
ENCODING 190
SWIDTH 1000 0
DWIDTH 8 0
BBX 8 16 0 -2
BITMAP
00
00
40
40
40
7C
C4
48
48
50
40
40
40
38
00
00
ENDCHAR

STARTCHAR Cbf
ENCODING 191
SWIDTH 1000 0
DWIDTH 8 0
BBX 8 16 0 -2
BITMAP
00
00
00
84
44
44
04
08
08
08
10
10
20
40
00
00
ENDCHAR

STARTCHAR Cc0
ENCODING 192
SWIDTH 1000 0
DWIDTH 8 0
BBX 8 16 0 -2
BITMAP
00
00
20
20
3C
24
44
64
94
08
08
10
20
40
00
00
ENDCHAR

STARTCHAR Cc1
ENCODING 193
SWIDTH 1000 0
DWIDTH 8 0
BBX 8 16 0 -2
BITMAP
00
00
08
70
10
10
10
FC
10
10
10
20
20
40
00
00
ENDCHAR

STARTCHAR Cc2
ENCODING 194
SWIDTH 1000 0
DWIDTH 8 0
BBX 8 16 0 -2
BITMAP
00
00
00
24
94
54
44
08
08
08
10
10
20
40
00
00
ENDCHAR

STARTCHAR Cc3
ENCODING 195
SWIDTH 1000 0
DWIDTH 8 0
BBX 8 16 0 -2
BITMAP
00
00
78
00
00
00
FC
10
10
10
10
20
20
40
00
00
ENDCHAR

STARTCHAR Cc4
ENCODING 196
SWIDTH 1000 0
DWIDTH 8 0
BBX 8 16 0 -2
BITMAP
00
00
40
40
40
40
60
58
44
40
40
40
40
40
00
00
ENDCHAR

STARTCHAR Cc5
ENCODING 197
SWIDTH 1000 0
DWIDTH 8 0
BBX 8 16 0 -2
BITMAP
00
00
10
10
10
FC
10
10
10
10
10
20
20
40
00
00
ENDCHAR

STARTCHAR Cc6
ENCODING 198
SWIDTH 1000 0
DWIDTH 8 0
BBX 8 16 0 -2
BITMAP
00
00
00
00
78
00
00
00
00
00
00
00
FC
00
00
00
ENDCHAR

STARTCHAR Cc7
ENCODING 199
SWIDTH 1000 0
DWIDTH 8 0
BBX 8 16 0 -2
BITMAP
00
00
00
FC
04
04
48
28
10
10
28
24
44
80
00
00
ENDCHAR

STARTCHAR Cc8
ENCODING 200
SWIDTH 1000 0
DWIDTH 8 0
BBX 8 16 0 -2
BITMAP
00
20
10
00
FC
04
08
10
38
54
94
10
10
10
00
00
ENDCHAR

STARTCHAR Cc9
ENCODING 201
SWIDTH 1000 0
DWIDTH 8 0
BBX 8 16 0 -2
BITMAP
00
00
08
08
08
08
08
08
10
10
20
20
40
80
00
00
ENDCHAR

STARTCHAR Cca
ENCODING 202
SWIDTH 1000 0
DWIDTH 8 0
BBX 8 16 0 -2
BITMAP
00
00
00
48
48
48
48
44
44
44
84
84
84
00
00
00
ENDCHAR

STARTCHAR Ccb
ENCODING 203
SWIDTH 1000 0
DWIDTH 8 0
BBX 8 16 0 -2
BITMAP
00
00
00
40
40
44
58
60
40
40
40
40
40
3C
00
00
ENDCHAR

STARTCHAR Ccc
ENCODING 204
SWIDTH 1000 0
DWIDTH 8 0
BBX 8 16 0 -2
BITMAP
00
00
00
FC
04
04
04
04
08
08
10
10
20
40
00
00
ENDCHAR

STARTCHAR Ccd
ENCODING 205
SWIDTH 1000 0
DWIDTH 8 0
BBX 8 16 0 -2
BITMAP
00
00
00
00
20
50
50
48
88
88
04
04
04
00
00
00
ENDCHAR

STARTCHAR Cce
ENCODING 206
SWIDTH 1000 0
DWIDTH 8 0
BBX 8 16 0 -2
BITMAP
00
00
10
10
10
FC
10
10
58
54
54
94
90
10
00
00
ENDCHAR

STARTCHAR Ccf
ENCODING 207
SWIDTH 1000 0
DWIDTH 8 0
BBX 8 16 0 -2
BITMAP
00
00
00
00
FC
04
04
08
48
50
20
20
10
10
00
00
ENDCHAR

STARTCHAR Cd0
ENCODING 208
SWIDTH 1000 0
DWIDTH 8 0
BBX 8 16 0 -2
BITMAP
00
00
00
60
18
00
40
30
08
00
C0
30
0C
00
00
00
ENDCHAR

STARTCHAR Cd1
ENCODING 209
SWIDTH 1000 0
DWIDTH 8 0
BBX 8 16 0 -2
BITMAP
00
00
10
10
10
10
20
28
28
28
44
5C
E4
04
00
00
ENDCHAR

STARTCHAR Cd2
ENCODING 210
SWIDTH 1000 0
DWIDTH 8 0
BBX 8 16 0 -2
BITMAP
00
00
08
08
08
48
28
28
10
18
28
24
44
80
00
00
ENDCHAR

STARTCHAR Cd3
ENCODING 211
SWIDTH 1000 0
DWIDTH 8 0
BBX 8 16 0 -2
BITMAP
00
00
00
F8
20
20
20
20
FC
20
20
20
20
1C
00
00
ENDCHAR

STARTCHAR Cd4
ENCODING 212
SWIDTH 1000 0
DWIDTH 8 0
BBX 8 16 0 -2
BITMAP
00
00
40
40
40
5C
E4
28
28
30
20
10
10
10
00
00
ENDCHAR

STARTCHAR Cd5
ENCODING 213
SWIDTH 1000 0
DWIDTH 8 0
BBX 8 16 0 -2
BITMAP
00
00
00
00
F0
10
10
10
10
10
10
10
FC
00
00
00
ENDCHAR

STARTCHAR Cd6
ENCODING 214
SWIDTH 1000 0
DWIDTH 8 0
BBX 8 16 0 -2
BITMAP
00
00
00
00
F8
08
08
08
78
08
08
08
F8
08
00
00
ENDCHAR

STARTCHAR Cd7
ENCODING 215
SWIDTH 1000 0
DWIDTH 8 0
BBX 8 16 0 -2
BITMAP
00
00
70
00
00
F8
08
08
08
08
10
10
20
40
00
00
ENDCHAR

STARTCHAR Cd8
ENCODING 216
SWIDTH 1000 0
DWIDTH 8 0
BBX 8 16 0 -2
BITMAP
00
00
08
48
48
48
48
48
48
48
08
10
10
20
00
00
ENDCHAR

STARTCHAR Cd9
ENCODING 217
SWIDTH 1000 0
DWIDTH 8 0
BBX 8 16 0 -2
BITMAP
00
00
10
50
50
50
50
54
54
54
54
54
98
90
00
00
ENDCHAR

STARTCHAR Cda
ENCODING 218
SWIDTH 1000 0
DWIDTH 8 0
BBX 8 16 0 -2
BITMAP
00
00
00
40
40
40
40
44
44
48
48
50
60
40
00
00
ENDCHAR

STARTCHAR Cdb
ENCODING 219
SWIDTH 1000 0
DWIDTH 8 0
BBX 8 16 0 -2
BITMAP
00
00
00
00
F8
88
88
88
88
88
88
88
F8
88
00
00
ENDCHAR

STARTCHAR Cdc
ENCODING 220
SWIDTH 1000 0
DWIDTH 8 0
BBX 8 16 0 -2
BITMAP
00
00
00
F8
88
88
88
88
08
08
10
10
20
40
00
00
ENDCHAR

STARTCHAR Cdd
ENCODING 221
SWIDTH 1000 0
DWIDTH 8 0
BBX 8 16 0 -2
BITMAP
00
00
00
80
44
44
04
04
08
08
10
10
20
C0
00
00
ENDCHAR

STARTCHAR Cde
ENCODING 222
SWIDTH 1000 0
DWIDTH 8 0
BBX 8 16 0 -2
BITMAP
00
A0
50
50
00
00
00
00
00
00
00
00
00
00
00
00
ENDCHAR

STARTCHAR Cdf
ENCODING 223
SWIDTH 1000 0
DWIDTH 8 0
BBX 8 16 0 -2
BITMAP
00
60
90
90
60
00
00
00
00
00
00
00
00
00
00
00
ENDCHAR
ENDFONT
